<?xml version="1.0" encoding="UTF-8" standalone="no"?>
<!-- Created with Inkscape (http://www.inkscape.org/) -->

<svg
   width="210mm"
   height="297mm"
   viewBox="0 0 210 297"
   version="1.1"
   id="svg1"
   xml:space="preserve"
   inkscape:version="1.3-beta (cedbd6c6ff, 2023-05-28)"
   sodipodi:docname="Recfasfasfdrso 1 - copia.svg"
   xmlns:inkscape="http://www.inkscape.org/namespaces/inkscape"
   xmlns:sodipodi="http://sodipodi.sourceforge.net/DTD/sodipodi-0.dtd"
   xmlns="http://www.w3.org/2000/svg"
   xmlns:svg="http://www.w3.org/2000/svg"><sodipodi:namedview
     id="namedview1"
     pagecolor="#505050"
     bordercolor="#eeeeee"
     borderopacity="1"
     inkscape:showpageshadow="0"
     inkscape:pageopacity="0"
     inkscape:pagecheckerboard="0"
     inkscape:deskcolor="#505050"
     inkscape:document-units="mm"
     showguides="false"
     inkscape:zoom="0.47393378"
     inkscape:cx="136.09496"
     inkscape:cy="562.31484"
     inkscape:window-width="1366"
     inkscape:window-height="705"
     inkscape:window-x="-8"
     inkscape:window-y="-8"
     inkscape:window-maximized="1"
     inkscape:current-layer="layer1" /><defs
     id="defs1"><style
       id="style1"><![CDATA[
.class1 {
  fill:#ff0000;
  fill-opacity:1;
}
]]></style></defs><g
     inkscape:label="Capa 1"
     inkscape:groupmode="layer"
     id="layer1"><g
       id="Capa_2_copia"
       data-name="Capa 2 copia"
       transform="matrix(0.26458333,0,0,0.26458333,-69.557655,18.081356)"
       class="class1"><path
         d="M 582.5,308.3 C 598.3,218 650.8,146.2 720,82.7 617.5,68.3 524.1,67 442.5,82.7 c 87.7,72.6 131.6,148 140,225.6 z"
         id="path1"
         style="fill:#ff0000;fill-opacity:1" /><path
         d="m 1006.7,532.1 c 28.6,-5.3 53.8,-25.7 77.1,-55.1 -193.9,14.6 -193.9,-110.5 -315.6,-94.5 -42.9,2.8 -86.5,34.9 -105.8,60.8 -28,45.2 -33.7,82.4 -12.6,127.8 30.8,76.2 107.1,102.2 112,202.8 0,52.4 -25.5,91.1 -116.9,119.4 19,-15.2 31.5,-37.8 32.9,-67.5 6.7,-48.3 -31.7,-74.8 -95.3,-74.6 -66.5,-2.5 -105.7,33.4 -104.3,81.9 1.8,24 12.1,43.4 28.6,57.3 C 422.9,862.3 399.1,824.5 399.1,773.9 404,673.3 480.2,647.3 511,571.1 532.1,525.7 526.4,488.5 498.4,443.3 479.2,417.4 435.6,385.3 392.6,382.5 270.9,366.5 270.9,491.6 77.1,477 c 23.2,29.4 48.5,49.8 77,55.1 -54.3,17 -105,13.4 -154.1,0 q 150.1,338.5 565.6,400.4 a 47.4,47.4 0 0 0 7.5,0.6 h 13.7 a 59.5,59.5 0 0 0 9.4,-0.7 q 415.1,-61.8 564.7,-400.3 c -49.1,13.4 -99.9,17 -154.2,0 z M 332.9,506.5 a 54.8,54.8 0 1 1 54.8,54.8 54.8,54.8 0 0 1 -54.8,-54.8 z m 441.9,54.8 a 54.8,54.8 0 1 1 54.8,-54.8 54.8,54.8 0 0 1 -54.8,54.8 z"
         id="path2"
         style="fill:#ff0000;fill-opacity:1" /><path
         d="m 20.7,376.4 c 55.3,2.5 106.5,-19.2 147.7,-99 4.2,-6.2 8.6,-12.3 13,-18.3 v 0 C 152.6,214.5 121.3,126.4 125.4,66.9 190.6,66.6 256.8,96.1 299,133.4 A 565.6,565.6 0 0 1 351.7,95.7 C 277.2,28.8 179.4,-0.6 62.9,0 c -7.3,105.2 7.7,200.3 58.4,279.1 -14.8,48 -53.1,76.5 -100.6,97.3 z"
         id="path3"
         style="fill:#ff0000;fill-opacity:1" /><path
         d="m 1043.6,66.9 c 4.1,59.5 -27.3,147.6 -56,192.2 4.4,6 8.8,12.1 13,18.3 41.2,79.8 92.4,101.5 147.7,99 -47.5,-20.8 -85.8,-49.3 -100.6,-97.3 C 1098.4,200.3 1113.4,105.2 1106.1,0 989.6,-0.6 891.8,28.8 817.3,95.7 A 565.6,565.6 0 0 1 870,133.4 C 912.2,96.1 978.4,66.6 1043.6,66.9 Z"
         id="path4"
         style="fill:#ff0000;fill-opacity:1" /></g></g></svg>
