<svg xmlns="http://www.w3.org/2000/svg" viewBox="0 0 1160.9 933.1">
<g id="Capa_2" data-name="Capa 2"><g id="Capa_2_copia" data-name="Capa 2 copia">
<path d="M582.5,308.3C598.3,218,650.8,146.2,720,82.7,617.5,68.3,524.1,67,442.5,82.7,530.2,155.3,574.1,230.7,582.5,308.3Z"/>
<path d="M1006.7,532.1c28.6-5.3,53.8-25.7,77.1-55.1-193.9,14.6-193.9-110.5-315.6-94.5-42.9,2.8-86.5,34.9-105.8,60.8-28,45.2-33.7,82.4-12.6,127.8,30.8,76.2,107.1,102.2,112,202.8,0,52.4-25.5,91.1-116.9,119.4,19-15.2,31.5-37.8,32.9-67.5,6.7-48.3-31.7-74.8-95.3-74.6-66.5-2.5-105.7,33.4-104.3,81.9,1.8,24,12.1,43.4,28.6,57.3-83.9-28.1-107.7-65.9-107.7-116.5C404,673.3,480.2,647.3,511,571.1c21.1-45.4,15.4-82.6-12.6-127.8-19.2-25.9-62.8-58-105.8-60.8C270.9,366.5,270.9,491.6,77.1,477c23.2,29.4,48.5,49.8,77,55.1-54.3,17-105,13.4-154.1,0Q150.1,870.6,565.6,932.5a47.4,47.4,0,0,0,7.5.6h13.7a59.5,59.5,0,0,0,9.4-.7q415.1-61.8,564.7-400.3C1111.8,545.5,1061,549.1,1006.7,532.1ZM332.9,506.5a54.8,54.8,0,1,1,54.8,54.8A54.8,54.8,0,0,1,332.9,506.5Zm441.9,54.8a54.8,54.8,0,1,1,54.8-54.8A54.8,54.8,0,0,1,774.8,561.3Z"/>
<path d="M20.7,376.4c55.3,2.5,106.5-19.2,147.7-99,4.2-6.2,8.6-12.3,13-18.3h0c-28.8-44.6-60.1-132.7-56-192.2,65.2-.3,131.4,29.2,173.6,66.5a565.6,565.6,0,0,1,52.7-37.7C277.2,28.8,179.4-.6,62.9,0c-7.3,105.2,7.7,200.3,58.4,279.1C106.5,327.1,68.2,355.6,20.7,376.4Z"/><path d="M1043.6,66.9c4.1,59.5-27.3,147.6-56,192.2,4.4,6,8.8,12.1,13,18.3,41.2,79.8,92.4,101.5,147.7,99-47.5-20.8-85.8-49.3-100.6-97.3,50.7-78.8,65.7-173.9,58.4-279.1C989.6-.6,891.8,28.8,817.3,95.7A565.6,565.6,0,0,1,870,133.4C912.2,96.1,978.4,66.6,1043.6,66.9Z"/>
</g></g>
</svg>